<svg width="34" height="35" viewBox="0 0 34 35" fill="none" xmlns="http://www.w3.org/2000/svg">
<path d="M17 0.5C26.0991 0.5 33.5 8.0974 33.5 17.5C33.5 26.9026 26.0991 34.5 17 34.5C7.90087 34.5 0.5 26.9026 0.5 17.5C0.5 8.0974 7.90087 0.5 17 0.5Z" stroke="black"/>
<path d="M19.8325 16.4537L10.7908 9.99542C10.3904 9.71125 9.87375 9.6725 9.4475 9.89208C9.02125 10.1117 8.75 10.5508 8.75 11.0417V23.9583C8.75 24.4362 9.02125 24.8883 9.4475 25.1079C9.62833 25.1983 9.835 25.25 10.0417 25.25C10.3129 25.25 10.5712 25.1725 10.7908 25.0046L19.8325 18.5463C20.1683 18.3008 20.375 17.9133 20.375 17.5C20.375 17.0867 20.1683 16.6862 19.8325 16.4537ZM21.6667 9.75H24.25V25.25H21.6667V9.75Z" fill="black"/>
</svg>
