<svg width="129" height="39" viewBox="0 0 129 39" fill="none" xmlns="http://www.w3.org/2000/svg">
<path d="M1.74072 27.2028V1.96829H13.1163C15.1147 1.96829 16.7928 2.22705 18.1508 2.74456C19.5171 3.26205 20.5462 3.99314 21.238 4.93779C21.9382 5.88245 22.2884 6.99549 22.2884 8.27694C22.2884 9.20515 22.0749 10.0512 21.6479 10.8152C21.2295 11.5791 20.6402 12.2198 19.8802 12.7373C19.12 13.2466 18.2319 13.5998 17.2156 13.797V14.0435C18.3428 14.0845 19.3678 14.3596 20.2901 14.869C21.2124 15.37 21.9469 16.0641 22.4935 16.9513C23.0399 17.8302 23.3132 18.8653 23.3132 20.0564C23.3132 21.4364 22.9375 22.6644 22.186 23.7404C21.443 24.8166 20.384 25.6627 19.009 26.2788C17.6341 26.8949 15.9943 27.2028 14.0899 27.2028H1.74072ZM8.86325 21.732H12.1939C13.3896 21.732 14.2863 21.5186 14.8841 21.0914C15.4819 20.656 15.7809 20.0153 15.7809 19.1691C15.7809 18.5777 15.6399 18.0767 15.3581 17.666C15.0763 17.2552 14.6748 16.9431 14.1539 16.7295C13.6415 16.516 13.0223 16.4091 12.2964 16.4091H8.86325V21.732ZM8.86325 12.1705H11.784C12.4074 12.1705 12.9583 12.0761 13.4365 11.8871C13.9148 11.6982 14.2863 11.4271 14.551 11.0739C14.8243 10.7125 14.961 10.273 14.961 9.75552C14.961 8.97515 14.6705 8.37961 14.0899 7.96889C13.5091 7.54996 12.7747 7.34049 11.8865 7.34049H8.86325V12.1705ZM38.6984 18.9228V8.27694H45.7698V27.2028H39.0571V23.605H38.8522C38.4251 24.8125 37.678 25.7571 36.6103 26.4389C35.5428 27.1125 34.2746 27.4493 32.8057 27.4493C31.4307 27.4493 30.2266 27.1454 29.1933 26.5375C28.1683 25.9296 27.3698 25.0917 26.7977 24.0239C26.2341 22.956 25.9479 21.732 25.9394 20.352V8.27694H33.0107V18.9228C33.0193 19.8592 33.2669 20.5944 33.7537 21.1283C34.2489 21.6622 34.9408 21.9292 35.829 21.9292C36.4183 21.9292 36.9263 21.8102 37.3533 21.5719C37.7889 21.3255 38.122 20.9805 38.3526 20.5369C38.5916 20.0851 38.7069 19.547 38.6984 18.9228ZM56.4887 27.4493C55.0882 27.4493 53.7986 27.0961 52.62 26.3897C51.4501 25.6832 50.5106 24.6112 49.8018 23.1736C49.1015 21.7362 48.7513 19.925 48.7513 17.7399C48.7513 15.4564 49.1186 13.5998 49.853 12.1705C50.596 10.7412 51.5525 9.69391 52.7225 9.02854C53.9011 8.36318 55.1394 8.0305 56.4375 8.0305C57.4111 8.0305 58.2652 8.19479 58.9996 8.52336C59.7341 8.84373 60.3489 9.27498 60.8443 9.81713C61.3397 10.3511 61.7154 10.9384 61.9715 11.5791H62.0741V1.96829H69.1453V27.2028H62.1253V24.0978H61.9715C61.6982 24.7385 61.3055 25.3135 60.7931 25.8229C60.2892 26.3239 59.6742 26.7224 58.9484 27.018C58.231 27.3055 57.4111 27.4493 56.4887 27.4493ZM59.1021 22.225C59.7511 22.225 60.3062 22.0442 60.7674 21.6828C61.2371 21.3132 61.5958 20.7956 61.8435 20.1302C62.0997 19.4567 62.2278 18.6599 62.2278 17.7399C62.2278 16.8034 62.0997 16.0025 61.8435 15.3371C61.5958 14.6636 61.2371 14.1502 60.7674 13.797C60.3062 13.4356 59.7511 13.2548 59.1021 13.2548C58.453 13.2548 57.8979 13.4356 57.4368 13.797C56.9841 14.1502 56.6339 14.6636 56.3863 15.3371C56.1472 16.0025 56.0276 16.8034 56.0276 17.7399C56.0276 18.6763 56.1472 19.4814 56.3863 20.1549C56.6339 20.8203 56.9841 21.3337 57.4368 21.6951C57.8979 22.0483 58.453 22.225 59.1021 22.225ZM103.605 27.5479C101.504 27.5479 99.6936 27.1618 98.1735 26.3897C96.6619 25.6093 95.4961 24.4921 94.6764 23.0382C93.865 21.576 93.4594 19.8263 93.4594 17.7891C93.4594 15.8341 93.8693 14.1256 94.689 12.6634C95.5089 11.2012 96.6662 10.0636 98.1607 9.25034C99.6553 8.43712 101.419 8.0305 103.451 8.0305C104.937 8.0305 106.282 8.25229 107.487 8.69586C108.691 9.13943 109.72 9.78427 110.574 10.6303C111.428 11.4682 112.086 12.4868 112.547 13.6861C113.008 14.8854 113.239 16.2366 113.239 17.7399V19.3171H95.6628V15.5713H106.731C106.722 15.0292 106.577 14.5527 106.295 14.142C106.022 13.7231 105.65 13.3986 105.181 13.1686C104.72 12.9304 104.194 12.8113 103.605 12.8113C103.033 12.8113 102.508 12.9304 102.029 13.1686C101.551 13.3986 101.167 13.7189 100.876 14.1297C100.595 14.5403 100.445 15.021 100.428 15.5713V19.6127C100.428 20.2206 100.561 20.7627 100.825 21.2392C101.09 21.7156 101.47 22.0894 101.965 22.3605C102.461 22.6315 103.058 22.7671 103.759 22.7671C104.246 22.7671 104.69 22.7013 105.091 22.5699C105.501 22.4385 105.851 22.2496 106.141 22.0032C106.432 21.7485 106.645 21.4446 106.782 21.0914H113.239C113.016 22.4057 112.491 23.5474 111.663 24.5167C110.834 25.4778 109.737 26.2253 108.371 26.7593C107.013 27.285 105.424 27.5479 103.605 27.5479ZM127.858 8.27694V13.2056H114.894V8.27694H127.858ZM117.405 3.7426H124.476V21.1159C124.476 21.3788 124.523 21.6006 124.617 21.7814C124.711 21.9538 124.856 22.0852 125.053 22.1756C125.249 22.2578 125.501 22.2988 125.809 22.2988C126.022 22.2988 126.27 22.2743 126.552 22.225C126.842 22.1756 127.055 22.1345 127.192 22.1018L128.217 26.8825C127.901 26.9729 127.448 27.0838 126.859 27.2152C126.278 27.3466 125.587 27.4328 124.784 27.4739C123.161 27.5561 121.799 27.3959 120.697 26.9934C119.596 26.5826 118.767 25.9378 118.212 25.059C117.657 24.18 117.388 23.0793 117.405 21.7567V3.7426Z" fill="#111827"/>
<path d="M88.7251 9.73987C89.7709 10.1302 90.4377 11.1218 90.3208 12.1949C90.1217 14.0213 89.6982 16.8776 88.8597 19.0301C87.9265 21.4254 85.151 24.3553 83.5655 25.9016C82.8759 26.574 81.8413 26.7652 80.9226 26.4315L78.6185 25.5943C77.693 25.258 77.0459 24.4472 77.0087 23.4963C76.9322 21.5528 76.9607 18.1966 77.8541 15.8985C78.753 13.5867 81.1471 10.7252 82.595 9.12274C83.284 8.36016 84.3946 8.12365 85.3739 8.48914L88.7251 9.73987ZM83.7845 12.3572C82.6338 12.7295 82.0148 13.9286 82.4019 15.0354C82.789 16.1423 84.0357 16.7377 85.1865 16.3653C86.3371 15.9929 86.9561 14.7938 86.569 13.6869C86.1819 12.5802 84.9353 11.9848 83.7845 12.3572Z" fill="#111827"/>
<path d="M88.3569 4.47881C88.9683 4.06029 89.8238 4.40635 89.9404 5.11933L90.5009 8.54503C90.6238 9.29691 89.8408 9.88664 89.1114 9.5916L85.6137 8.17682C84.8843 7.88178 84.7749 6.93111 85.4196 6.48976L88.3569 4.47881Z" fill="#111827"/>
<path d="M86.3934 23.8652C86.8112 23.4101 87.6954 23.7964 87.5491 24.3868L86.7719 27.5218C86.6675 27.9434 86.1232 28.0923 85.8036 27.7866L84.441 26.4832C84.2023 26.255 84.2159 25.8792 84.467 25.6637C84.998 25.2079 85.859 24.4476 86.3934 23.8652Z" fill="#111827"/>
<path d="M76.4415 20.3795C76.4952 19.7747 75.5941 19.4262 75.2512 19.9358L73.4306 22.6414C73.1858 23.0053 73.4497 23.4868 73.9002 23.498L75.8213 23.5459C76.1577 23.5542 76.431 23.2852 76.4196 22.9617C76.3956 22.2775 76.3727 21.1536 76.4415 20.3795Z" fill="#111827"/>
<path d="M75.6233 27.0918C76.0824 26.199 77.1674 25.7826 78.1395 26.1263L79.1682 26.4899C80.6989 27.031 81.3385 28.7792 80.4974 30.1233L80.0358 30.8605C79.4291 31.83 78.1904 32.2461 77.0882 31.8508C75.9071 31.4273 74.5848 31.9373 74.035 33.0283L73.3353 34.4167C72.7732 35.5322 71.4458 36.0825 70.2167 35.7096L47.4731 28.8085L68.9775 32.2464C70.3744 32.4697 71.6944 31.5593 71.9227 30.2152L71.9889 29.8247C72.1442 28.9108 72.9473 28.2239 73.9088 28.1748C74.6401 28.1373 75.2986 27.7232 75.6233 27.0918Z" fill="#111827"/>
</svg>
