<svg width="61" height="61" viewBox="0 0 61 61" fill="none" xmlns="http://www.w3.org/2000/svg">
<path d="M30.6221 51.24C19.1541 51.24 9.88208 41.968 9.88208 30.5C9.88208 19.032 19.1541 9.76001 30.6221 9.76001C42.0901 9.76001 51.3621 19.032 51.3621 30.5C51.3621 41.968 41.9681 51.24 30.6221 51.24ZM30.6221 12.2C20.4961 12.2 12.3221 20.374 12.3221 30.5C12.3221 40.626 20.4961 48.8 30.6221 48.8C40.7481 48.8 48.9221 40.626 48.9221 30.5C48.9221 20.374 40.6261 12.2 30.6221 12.2Z" fill="#F8F9FA"/>
<path d="M18.666 45.5059L16.47 44.5299C17.08 43.0659 19.032 42.2119 21.106 41.2359C23.18 40.2599 25.742 39.1619 25.742 37.8199V35.9899C25.01 35.3799 23.79 34.0379 23.546 32.0859C22.936 31.4759 21.96 30.3779 21.96 28.9139C21.96 28.0599 22.326 27.3279 22.57 26.8399C22.326 25.8639 22.082 24.0339 22.082 22.5699C22.082 17.8119 25.376 14.6399 30.622 14.6399C32.086 14.6399 33.916 15.0059 34.892 16.1039C37.21 16.5919 39.162 19.2759 39.162 22.5699C39.162 24.6439 38.796 26.3519 38.552 27.2059C38.796 27.5719 39.04 28.1819 39.04 28.9139C39.04 30.4999 38.186 31.5979 37.454 32.0859C37.21 34.0379 36.112 35.2579 35.38 35.8679V37.8199C35.38 38.9179 37.576 39.7719 39.528 40.5039C41.846 41.3579 44.286 42.3339 45.14 44.2859L42.822 45.1399C42.456 44.1639 40.504 43.4319 38.674 42.8219C35.99 41.8459 32.94 40.7479 32.94 37.9419V34.7699L33.55 34.4039C33.55 34.4039 35.014 33.4279 35.014 31.4759V30.6219L35.746 30.2559C35.868 30.2559 36.478 29.8899 36.478 28.9139C36.478 28.6699 36.234 28.3039 36.112 28.1819L35.624 27.6939L35.868 27.0839C35.868 27.0839 36.478 25.1319 36.478 22.6919C36.478 20.3739 35.136 18.6659 34.038 18.6659H33.306L32.94 18.0559C32.94 17.5679 32.086 17.0799 30.622 17.0799C26.84 17.0799 24.522 19.1539 24.522 22.5699C24.522 24.1559 25.132 26.8399 25.132 26.8399L25.254 27.4499L24.766 28.0599C24.644 28.0599 24.4 28.4259 24.4 28.9139C24.4 29.5239 25.132 30.2559 25.498 30.4999L25.986 30.8659V31.4759C25.986 33.3059 27.572 34.2819 27.572 34.4039L28.182 34.7699V37.9419C28.182 40.8699 25.01 42.3339 22.082 43.5539C20.74 44.0419 18.91 44.8959 18.666 45.5059Z" fill="#F8F9FA"/>
</svg>
