<svg width="174" height="49" viewBox="0 0 174 49" fill="none" xmlns="http://www.w3.org/2000/svg">
<path d="M2.3479 36.6397V2.65112H17.6917C20.3872 2.65112 22.6507 2.99965 24.4824 3.69668C26.3254 4.3937 27.7135 5.37841 28.6465 6.65076C29.5911 7.92313 30.0634 9.42229 30.0634 11.1483C30.0634 12.3985 29.7754 13.5381 29.1995 14.5671C28.635 15.596 27.8402 16.459 26.815 17.156C25.7897 17.842 24.5918 18.3177 23.221 18.5833V18.9153C24.7414 18.9706 26.1239 19.3411 27.368 20.0272C28.6121 20.702 29.6027 21.6369 30.34 22.8318C31.0771 24.0157 31.4457 25.4099 31.4457 27.0142C31.4457 28.8729 30.9389 30.5269 29.9252 31.9762C28.9231 33.4257 27.4947 34.5653 25.6401 35.3951C23.7854 36.2249 21.5736 36.6397 19.0049 36.6397H2.3479ZM11.955 29.271H16.4476C18.0603 29.271 19.2698 28.9835 20.0761 28.4081C20.8825 27.8217 21.2858 26.9588 21.2858 25.8191C21.2858 25.0225 21.0956 24.3477 20.7155 23.7945C20.3354 23.2412 19.7939 22.8208 19.0913 22.5331C18.4001 22.2456 17.565 22.1016 16.5858 22.1016H11.955V29.271ZM11.955 16.3926H15.8946C16.7356 16.3926 17.4786 16.2654 18.1236 16.0109C18.7687 15.7564 19.2698 15.3913 19.6269 14.9156C19.9956 14.4288 20.1799 13.8368 20.1799 13.1398C20.1799 12.0887 19.7881 11.2866 19.0049 10.7334C18.2215 10.1691 17.2309 9.88698 16.0329 9.88698H11.955V16.3926ZM52.1978 25.4872V11.1483H61.7359V36.6397H52.6817V31.7938H52.4053C51.8292 33.4201 50.8214 34.6924 49.3813 35.6108C47.9414 36.518 46.2308 36.9717 44.2495 36.9717C42.3949 36.9717 40.7707 36.5624 39.3769 35.7436C37.9944 34.9248 36.9174 33.7962 36.1456 32.3579C35.3854 30.9196 34.9995 29.271 34.988 27.4123V11.1483H44.5261V25.4872C44.5375 26.7485 44.8715 27.7387 45.5282 28.4579C46.1962 29.177 47.1294 29.5367 48.3274 29.5367C49.1223 29.5367 49.8076 29.3763 50.3835 29.0553C50.9711 28.7235 51.4203 28.2588 51.7313 27.6613C52.0538 27.0528 52.2093 26.3281 52.1978 25.4872ZM76.1941 36.9717C74.305 36.9717 72.5656 36.496 70.9758 35.5445C69.3978 34.593 68.1305 33.1491 67.1745 31.2128C66.2299 29.2767 65.7576 26.8371 65.7576 23.894C65.7576 20.8183 66.2529 18.3177 67.2436 16.3926C68.2457 14.4675 69.5359 13.0568 71.114 12.1606C72.7038 11.2645 74.3741 10.8164 76.125 10.8164C77.4381 10.8164 78.5902 11.0376 79.5808 11.4802C80.5715 11.9117 81.4008 12.4926 82.069 13.2228C82.7372 13.9419 83.244 14.733 83.5895 15.596H83.7278V2.65112H93.2657V36.6397H83.7969V32.4576H83.5895C83.2208 33.3205 82.691 34.095 81.9999 34.781C81.3203 35.4559 80.4907 35.9926 79.5117 36.3907C78.544 36.7781 77.4381 36.9717 76.1941 36.9717ZM79.719 29.935C80.5945 29.935 81.3432 29.6915 81.9653 29.2047C82.5988 28.7069 83.0826 28.0098 83.4168 27.1136C83.7623 26.2064 83.9351 25.1332 83.9351 23.894C83.9351 22.6327 83.7623 21.5539 83.4168 20.6577C83.0826 19.7505 82.5988 19.059 81.9653 18.5833C81.3432 18.0965 80.5945 17.8531 79.719 17.8531C78.8436 17.8531 78.0948 18.0965 77.4728 18.5833C76.8622 19.059 76.3899 19.7505 76.0559 20.6577C75.7334 21.5539 75.572 22.6327 75.572 23.894C75.572 25.1552 75.7334 26.2397 76.0559 27.1469C76.3899 28.0431 76.8622 28.7345 77.4728 29.2213C78.0948 29.6971 78.8436 29.935 79.719 29.935ZM139.746 37.1045C136.913 37.1045 134.47 36.5844 132.42 35.5445C130.381 34.4933 128.809 32.9887 127.703 31.0303C126.609 29.0609 126.061 26.7042 126.061 23.9603C126.061 21.3271 126.614 19.0259 127.72 17.0565C128.826 15.0871 130.387 13.5547 132.403 12.4594C134.419 11.364 136.797 10.8164 139.539 10.8164C141.543 10.8164 143.358 11.1151 144.982 11.7125C146.606 12.31 147.994 13.1785 149.146 14.3181C150.298 15.4467 151.185 16.8186 151.807 18.4339C152.429 20.0492 152.74 21.8693 152.74 23.894V26.0183H129.033V20.9731H143.962C143.951 20.2429 143.755 19.6011 143.375 19.048C143.006 18.4837 142.505 18.0467 141.872 17.7369C141.25 17.416 140.541 17.2556 139.746 17.2556C138.975 17.2556 138.266 17.416 137.621 17.7369C136.976 18.0467 136.458 18.4782 136.066 19.0314C135.686 19.5845 135.484 20.2319 135.461 20.9731V26.4165C135.461 27.2353 135.64 27.9655 135.997 28.6072C136.354 29.249 136.867 29.7524 137.535 30.1175C138.203 30.4826 139.009 30.6652 139.954 30.6652C140.61 30.6652 141.209 30.5766 141.751 30.3996C142.304 30.2226 142.776 29.9681 143.168 29.6363C143.559 29.2933 143.847 28.8839 144.031 28.4081H152.74C152.441 30.1784 151.732 31.7162 150.615 33.0218C149.498 34.3163 148.017 35.3231 146.174 36.0423C144.343 36.7504 142.2 37.1045 139.746 37.1045ZM172.46 11.1483V17.7867H154.973V11.1483H172.46ZM158.36 5.04095H167.898V28.4412C167.898 28.7953 167.962 29.094 168.088 29.3376C168.215 29.5698 168.411 29.7468 168.676 29.8685C168.941 29.9792 169.281 30.0345 169.695 30.0345C169.983 30.0345 170.317 30.0014 170.697 29.935C171.089 29.8685 171.377 29.8132 171.561 29.769L172.944 36.2083C172.517 36.33 171.907 36.4794 171.112 36.6564C170.329 36.8334 169.396 36.9495 168.313 37.0048C166.124 37.1155 164.287 36.8998 162.801 36.3577C161.315 35.8043 160.198 34.9358 159.449 33.7521C158.7 32.5682 158.337 31.0856 158.36 29.3043V5.04095Z" fill="#D4E866"/>
<path d="M119.676 13.1188C121.086 13.6445 121.986 14.9801 121.828 16.4255C121.559 18.8854 120.988 22.7326 119.857 25.6318C118.599 28.8581 114.855 32.8044 112.716 34.8871C111.786 35.7928 110.391 36.0504 109.151 35.6008L106.044 34.4732C104.795 34.0202 103.922 32.9281 103.872 31.6474C103.769 29.0298 103.807 24.5092 105.013 21.4139C106.225 18.3001 109.454 14.4459 111.407 12.2875C112.337 11.2604 113.835 10.9419 115.156 11.4341L119.676 13.1188ZM113.012 16.644C111.46 17.1456 110.625 18.7605 111.147 20.2514C111.669 21.7422 113.351 22.5441 114.903 22.0426C116.455 21.541 117.29 19.9259 116.767 18.4351C116.245 16.9444 114.564 16.1425 113.012 16.644Z" fill="#D4E866"/>
<path d="M119.179 6.0326C120.004 5.46889 121.158 5.935 121.315 6.89531L122.071 11.5094C122.237 12.5221 121.181 13.3164 120.197 12.9191L115.479 11.0135C114.495 10.6161 114.348 9.33561 115.217 8.74115L119.179 6.0326Z" fill="#D4E866"/>
<path d="M116.531 32.1442C117.094 31.5312 118.287 32.0515 118.089 32.8467L117.041 37.0693C116.9 37.6372 116.166 37.8378 115.735 37.4259L113.897 35.6704C113.575 35.3631 113.593 34.8569 113.932 34.5665C114.648 33.9526 115.81 32.9286 116.531 32.1442Z" fill="#D4E866"/>
<path d="M103.107 27.4494C103.18 26.6347 101.964 26.1653 101.502 26.8517L99.046 30.4959C98.7157 30.986 99.0717 31.6345 99.6794 31.6496L102.271 31.7141C102.724 31.7254 103.093 31.3631 103.078 30.9273C103.045 30.0057 103.014 28.4919 103.107 27.4494Z" fill="#D4E866"/>
<path d="M102.003 36.4902C102.623 35.2876 104.086 34.7268 105.397 35.1896L106.785 35.6794C108.85 36.4083 109.712 38.7629 108.578 40.5732L107.955 41.5663C107.137 42.872 105.466 43.4325 103.979 42.9001C102.386 42.3297 100.603 43.0165 99.8611 44.486L98.9173 46.3562C98.159 47.8586 96.3686 48.5998 94.7108 48.0975L64.0334 38.8024L93.0393 43.4328C94.9235 43.7336 96.704 42.5075 97.0119 40.697L97.1012 40.1711C97.3106 38.9402 98.394 38.015 99.6908 37.9488C100.677 37.8984 101.565 37.3405 102.003 36.4902Z" fill="#D4E866"/>
</svg>
