<svg width="137" height="39" viewBox="0 0 137 39" fill="none" xmlns="http://www.w3.org/2000/svg">
<path d="M1.84863 28.9261V2.09298H13.9296C16.052 2.09298 17.8342 2.36813 19.2764 2.91842C20.7274 3.4687 21.8204 4.2461 22.555 5.25059C23.2987 6.25509 23.6706 7.43864 23.6706 8.80127C23.6706 9.78828 23.4438 10.688 22.9904 11.5003C22.546 12.3126 21.9201 12.9939 21.113 13.5442C20.3057 14.0858 19.3625 14.4614 18.2832 14.671V14.9331C19.4803 14.9768 20.5688 15.2693 21.5484 15.8109C22.5279 16.3437 23.3079 17.0817 23.8884 18.0251C24.4687 18.9597 24.759 20.0604 24.759 21.327C24.759 22.7944 24.3599 24.1002 23.5618 25.2444C22.7728 26.3887 21.6481 27.2884 20.1879 27.9435C18.7276 28.5986 16.9861 28.9261 14.9636 28.9261H1.84863ZM9.41287 23.1087H12.9501C14.2199 23.1087 15.1722 22.8817 15.8071 22.4275C16.442 21.9645 16.7595 21.2833 16.7595 20.3835C16.7595 19.7546 16.6098 19.2218 16.3105 18.7851C16.0112 18.3483 15.5849 18.0164 15.0316 17.7893C14.4874 17.5623 13.8299 17.4486 13.0589 17.4486H9.41287V23.1087ZM9.41287 12.9415H12.5147C13.1768 12.9415 13.7619 12.8411 14.2698 12.6402C14.7777 12.4393 15.1722 12.151 15.4534 11.7754C15.7436 11.3911 15.8888 10.9238 15.8888 10.3735C15.8888 9.54371 15.5803 8.91045 14.9636 8.47371C14.3468 8.02823 13.5669 7.8055 12.6236 7.8055H9.41287V12.9415ZM41.0983 20.1215V8.80127H48.6082V28.9261H41.4792V25.1003H41.2616C40.808 26.3843 40.0145 27.3887 38.8807 28.1138C37.747 28.83 36.4001 29.1882 34.8401 29.1882C33.3799 29.1882 32.101 28.865 31.0037 28.2186C29.9152 27.5722 29.0671 26.6812 28.4595 25.5457C27.8609 24.4102 27.557 23.1087 27.548 21.6413V8.80127H35.0579V20.1215C35.0669 21.1172 35.3299 21.899 35.8469 22.4667C36.3729 23.0345 37.1077 23.3184 38.0509 23.3184C38.6767 23.3184 39.2163 23.1918 39.6698 22.9384C40.1324 22.6764 40.4861 22.3096 40.731 21.8379C40.9849 21.3575 41.1073 20.7853 41.0983 20.1215ZM59.9919 29.1882C58.5045 29.1882 57.1349 28.8126 55.8833 28.0614C54.6408 27.3102 53.643 26.1703 52.8902 24.6416C52.1466 23.1131 51.7746 21.1872 51.7746 18.8637C51.7746 16.4355 52.1646 14.4614 52.9446 12.9415C53.7337 11.4217 54.7496 10.308 55.9921 9.60048C57.2438 8.89298 58.5589 8.53922 59.9375 8.53922C60.9714 8.53922 61.8785 8.71391 62.6585 9.0633C63.4385 9.40396 64.0915 9.86253 64.6175 10.439C65.1436 11.0068 65.5427 11.6313 65.8147 12.3126H65.9236V2.09298H73.4333V28.9261H65.978V25.6244H65.8147C65.5244 26.3056 65.1073 26.9171 64.5631 27.4587C64.028 27.9915 63.3749 28.4152 62.6041 28.7295C61.8421 29.0353 60.9714 29.1882 59.9919 29.1882ZM62.7673 23.6329C63.4566 23.6329 64.0461 23.4406 64.5359 23.0563C65.0347 22.6633 65.4156 22.113 65.6788 21.4055C65.9508 20.6892 66.0868 19.842 66.0868 18.8637C66.0868 17.8679 65.9508 17.0162 65.6788 16.3087C65.4156 15.5925 65.0347 15.0466 64.5359 14.671C64.0461 14.2867 63.4566 14.0945 62.7673 14.0945C62.078 14.0945 61.4884 14.2867 60.9987 14.671C60.518 15.0466 60.146 15.5925 59.8831 16.3087C59.6291 17.0162 59.5021 17.8679 59.5021 18.8637C59.5021 19.8594 59.6291 20.7155 59.8831 21.4317C60.146 22.1392 60.518 22.6851 60.9987 23.0695C61.4884 23.445 62.078 23.6329 62.7673 23.6329ZM110.03 29.293C107.799 29.293 105.876 28.8824 104.262 28.0614C102.656 27.2316 101.418 26.0437 100.548 24.4976C99.686 22.9428 99.2552 21.0823 99.2552 18.916C99.2552 16.8372 99.6906 15.0205 100.561 13.4656C101.432 11.9108 102.661 10.7011 104.248 9.83634C105.835 8.97159 107.708 8.53922 109.867 8.53922C111.445 8.53922 112.874 8.77506 114.152 9.24673C115.431 9.7184 116.524 10.4041 117.431 11.3038C118.338 12.1947 119.037 13.2778 119.526 14.5531C120.016 15.8283 120.261 17.2652 120.261 18.8637V20.5408H101.595V16.5577H113.35C113.341 15.9812 113.186 15.4746 112.887 15.0379C112.597 14.5924 112.202 14.2474 111.704 14.0028C111.214 13.7495 110.656 13.6228 110.03 13.6228C109.423 13.6228 108.865 13.7495 108.357 14.0028C107.849 14.2474 107.441 14.588 107.132 15.0247C106.833 15.4614 106.674 15.9725 106.656 16.5577V20.8551C106.656 21.5015 106.797 22.078 107.078 22.5846C107.359 23.0913 107.763 23.4887 108.289 23.777C108.815 24.0652 109.45 24.2094 110.193 24.2094C110.71 24.2094 111.182 24.1394 111.608 23.9997C112.044 23.8599 112.416 23.659 112.724 23.3971C113.032 23.1263 113.259 22.8031 113.404 22.4275H120.261C120.025 23.8251 119.467 25.0391 118.588 26.0698C117.708 27.0918 116.542 27.8867 115.091 28.4544C113.649 29.0135 111.962 29.293 110.03 29.293ZM135.787 8.80127V14.0421H122.019V8.80127H135.787ZM124.686 3.97968H132.196V22.4536C132.196 22.7331 132.246 22.969 132.345 23.1612C132.445 23.3445 132.599 23.4843 132.808 23.5804C133.017 23.6678 133.284 23.7114 133.611 23.7114C133.837 23.7114 134.1 23.6853 134.4 23.6329C134.708 23.5804 134.935 23.5367 135.08 23.5019L136.168 28.5855C135.833 28.6816 135.352 28.7995 134.726 28.9392C134.109 29.079 133.375 29.1706 132.522 29.2143C130.799 29.3017 129.352 29.1314 128.182 28.7034C127.012 28.2666 126.133 27.5809 125.543 26.6464C124.953 25.7118 124.668 24.5413 124.686 23.135V3.97968Z" fill="#D4E866"/>
<path d="M94.2273 10.3569C95.338 10.7719 96.0461 11.8263 95.922 12.9675C95.7105 14.9095 95.2607 17.9467 94.3702 20.2356C93.3792 22.7827 90.4316 25.8982 88.7477 27.5424C88.0154 28.2574 86.9166 28.4608 85.9409 28.1058L83.4939 27.2156C82.511 26.858 81.8239 25.9959 81.7843 24.9848C81.7031 22.9182 81.7333 19.3493 82.6822 16.9057C83.6367 14.4474 86.1794 11.4046 87.717 9.70065C88.4487 8.88976 89.6283 8.63826 90.6683 9.02691L94.2273 10.3569ZM88.9804 13.14C87.7582 13.5359 87.1008 14.8109 87.512 15.9879C87.9231 17.1648 89.2472 17.798 90.4693 17.402C91.6912 17.006 92.3487 15.7309 91.9375 14.554C91.5263 13.3771 90.2025 12.744 88.9804 13.14Z" fill="#D4E866"/>
<path d="M93.8364 4.76255C94.4857 4.31752 95.3943 4.6855 95.5181 5.44364L96.1133 9.08635C96.2439 9.88586 95.4123 10.513 94.6377 10.1992L90.9231 8.69482C90.1484 8.38109 90.0323 7.37019 90.717 6.90088L93.8364 4.76255Z" fill="#D4E866"/>
<path d="M91.7512 25.377C92.1948 24.8931 93.1339 25.3038 92.9785 25.9317L92.1532 29.2652C92.0422 29.7136 91.4642 29.872 91.1247 29.5468L89.6777 28.1609C89.4242 27.9183 89.4386 27.5186 89.7052 27.2894C90.2692 26.8048 91.1836 25.9963 91.7512 25.377Z" fill="#D4E866"/>
<path d="M81.1821 21.6705C81.2391 21.0274 80.2821 20.6568 79.918 21.1987L77.9845 24.0757C77.7245 24.4626 78.0048 24.9746 78.4832 24.9865L80.5235 25.0375C80.8807 25.0463 81.1709 24.7603 81.1588 24.4163C81.1334 23.6887 81.109 22.4936 81.1821 21.6705Z" fill="#D4E866"/>
<path d="M80.3131 28.808C80.8007 27.8586 81.953 27.4159 82.9854 27.7813L84.0779 28.168C85.7035 28.7434 86.3828 30.6023 85.4895 32.0315L84.9993 32.8155C84.3549 33.8464 83.0395 34.2888 81.8689 33.8685C80.6145 33.4182 79.2102 33.9604 78.6264 35.1206L77.8833 36.597C77.2862 37.7831 75.8766 38.3683 74.5712 37.9717L50.4172 30.6335L73.2552 34.2891C74.7387 34.5266 76.1406 33.5586 76.383 32.1292L76.4534 31.7141C76.6183 30.7423 77.4712 30.0119 78.4923 29.9596C79.2689 29.9198 79.9683 29.4794 80.3131 28.808Z" fill="#D4E866"/>
</svg>
