<svg width="24" height="24" viewBox="0 0 24 24" fill="none" xmlns="http://www.w3.org/2000/svg">
<path d="M3.60998 1.814L13.793 12L3.61098 22.186C3.43023 22.1094 3.27601 21.9814 3.16754 21.8178C3.05906 21.6542 3.00114 21.4623 3.00098 21.266V2.735C3.00086 2.53865 3.05854 2.34661 3.16684 2.18282C3.27514 2.01904 3.42926 1.89077 3.60998 1.814ZM14.5 12.707L16.802 15.009L5.86498 21.342L14.5 12.707ZM17.699 9.509L20.506 11.135C20.6575 11.2229 20.7833 11.3491 20.8707 11.5009C20.9582 11.6527 21.0042 11.8248 21.0042 12C21.0042 12.1752 20.9582 12.3473 20.8707 12.4991C20.7833 12.6509 20.6575 12.7771 20.506 12.865L17.698 14.491L15.207 12L17.699 9.509ZM5.86498 2.658L16.803 8.99L14.5 11.293L5.86498 2.658Z" fill="black"/>
</svg>
